<?xml version="1.0" standalone="no"?>
<!DOCTYPE svg PUBLIC "-//W3C//DTD SVG 20010904//EN"
 "http://www.w3.org/TR/2001/REC-SVG-20010904/DTD/svg10.dtd">
<svg version="1.0" xmlns="http://www.w3.org/2000/svg"
 width="737.000000pt" height="737.000000pt" viewBox="0 0 737.000000 737.000000"
 preserveAspectRatio="xMidYMid meet">
<metadata>
Created by potrace 1.11, written by Peter Selinger 2001-2013
</metadata>
<g transform="translate(0.000000,737.000000) scale(0.100000,-0.100000)"
fill="#000000" stroke="none">
<path d="M1545 7345 c-399 -57 -744 -229 -1025 -514 -247 -250 -408 -550 -475
-885 -103 -519 12 -1014 333 -1441 71 -94 268 -283 372 -357 204 -145 530
-280 735 -304 28 -4 73 -10 100 -14 28 -5 480 -9 1005 -9 l955 -1 -1 957 c0
842 -3 998 -20 1088 -2 10 -6 37 -10 59 -3 22 -7 43 -9 47 -2 3 -7 20 -10 37
-3 17 -21 80 -40 139 -161 491 -542 895 -1024 1087 -97 39 -237 81 -302 92
-171 26 -220 31 -349 31 -80 0 -185 -5 -235 -12z"/>
<path d="M5438 7355 c-1 -1 -32 -6 -68 -9 -240 -25 -520 -129 -747 -278 -121
-79 -195 -141 -294 -244 -104 -107 -126 -134 -203 -248 -156 -229 -266 -534
-292 -806 -5 -56 -10 -1802 -5 -1926 l1 -22 978 3 c537 1 995 6 1017 10 37 6
207 40 248 50 104 24 348 134 467 210 409 262 699 683 789 1145 18 93 21 113
28 190 15 173 5 346 -31 525 -98 486 -436 941 -881 1187 -173 95 -394 169
-603 201 -78 12 -393 22 -404 12z"/>
<path d="M1540 3545 c-47 -7 -112 -18 -145 -25 -33 -8 -65 -14 -71 -16 -49 -9
-248 -86 -329 -126 -99 -49 -258 -149 -325 -204 -68 -56 -212 -200 -265 -264
-217 -267 -347 -581 -390 -945 -6 -55 -7 -283 -1 -330 2 -16 7 -57 11 -90 9
-81 57 -273 94 -370 86 -232 236 -463 415 -640 283 -281 641 -452 1041 -500
105 -12 351 -13 411 -1 16 3 50 8 76 11 142 17 370 94 538 182 90 47 240 143
276 177 6 6 36 31 65 56 78 64 210 211 284 315 129 181 258 484 290 680 28
173 30 252 30 1160 l0 940 -960 1 c-720 1 -981 -1 -1045 -11z"/>
<path d="M3829 3518 c0 -24 -1 -441 -1 -928 -1 -777 3 -1027 16 -1049 2 -3 6
-28 10 -56 23 -191 137 -474 271 -675 80 -118 115 -162 229 -276 284 -283 664
-463 1066 -503 92 -9 304 -7 385 4 190 24 394 85 562 166 91 45 269 155 307
190 8 8 29 25 48 39 48 36 198 187 244 245 21 28 41 52 44 55 42 42 192 312
237 425 15 38 61 187 67 217 6 27 13 61 22 101 15 71 27 209 27 317 2 757
-482 1434 -1198 1678 -91 31 -191 57 -255 67 -19 3 -60 10 -90 15 -30 5 -490
9 -1022 9 l-968 1 -1 -42z"/>
</g>
</svg>
